<?xml version="1.0" standalone="no"?>
<!DOCTYPE svg PUBLIC "-//W3C//DTD SVG 20010904//EN"
 "http://www.w3.org/TR/2001/REC-SVG-20010904/DTD/svg10.dtd">
<svg version="1.0" xmlns="http://www.w3.org/2000/svg"
 width="431.000000pt" height="431.000000pt" viewBox="0 0 431.000000 431.000000"
 preserveAspectRatio="xMidYMid meet">
<metadata>
Created by potrace 1.11, written by Peter Selinger 2001-2013
</metadata>
<g transform="translate(0.000000,431.000000) scale(0.100000,-0.100000)"
fill="#000000" stroke="none">
<path d="M1098 3596 c-37 -40 -48 -61 -48 -85 0 -25 -4 -32 -14 -28 -8 3 -31
9 -50 13 -34 6 -40 3 -86 -42 -41 -41 -50 -55 -50 -86 l0 -37 -47 14 -48 15
-52 -52 -53 -52 2 -901 3 -900 95 -25 95 -25 3 -102 c3 -103 3 -103 30 -109
15 -3 41 -10 57 -14 17 -5 49 -14 73 -20 l42 -11 0 -99 0 -98 33 -11 c17 -5
133 -37 257 -70 124 -33 311 -83 415 -111 105 -28 246 -66 315 -84 69 -18 271
-73 451 -121 l325 -87 52 52 c42 42 52 58 52 86 0 19 1 34 3 34 1 0 23 -7 48
-14 l46 -14 52 52 c40 41 51 59 51 84 0 35 6 37 60 22 33 -10 36 -8 87 42 l53
52 0 234 0 234 25 -6 c14 -3 36 -9 49 -12 19 -5 34 4 75 46 41 42 51 58 51 86
0 19 1 34 3 34 1 0 23 -7 48 -14 l46 -14 52 52 51 52 0 100 0 100 -91 24 c-51
13 -97 23 -103 23 -8 0 -10 32 -8 103 l3 103 -43 11 c-24 6 -67 18 -96 26 -29
8 -56 13 -60 10 -4 -2 -7 134 -7 302 l0 306 -97 26 -98 25 0 101 0 102 -47 11
c-27 7 -72 19 -100 27 l-53 15 0 99 c0 85 -2 99 -17 104 -10 3 -85 23 -168 45
-82 22 -343 93 -580 156 -236 64 -439 118 -449 120 -11 3 -69 18 -130 35 -283
77 -447 120 -454 119 -4 -1 -28 -25 -54 -53z m474 -387 c227 -61 460 -123 518
-138 58 -16 250 -67 428 -115 177 -48 326 -85 330 -82 4 2 7 -44 7 -102 l0
-106 95 -26 95 -26 3 -301 2 -300 97 -26 c76 -21 100 -24 112 -15 13 10 14 10
4 -2 -9 -9 -13 -48 -13 -112 l0 -97 53 -15 c28 -9 73 -20 100 -27 45 -11 47
-13 47 -46 0 -32 -2 -35 -25 -29 -14 3 -36 9 -48 12 -19 4 -34 -5 -75 -47 -42
-43 -52 -59 -52 -87 0 -27 -3 -33 -16 -28 -9 3 -32 9 -52 12 -34 5 -41 2 -84
-44 l-48 -50 0 -235 0 -235 -47 14 -47 14 -53 -52 c-43 -42 -53 -59 -53 -85 0
-18 -3 -33 -6 -33 -6 0 -516 136 -864 230 -124 34 -234 63 -244 65 -11 3 -69
18 -130 35 -129 35 -317 85 -395 106 -55 14 -55 14 -85 -14 l-31 -27 28 31
c27 30 28 34 25 129 l-3 99 -97 25 -98 26 0 832 c0 662 3 833 13 833 6 0 28
-4 47 -10 33 -10 36 -8 87 42 43 42 53 59 53 85 0 18 2 33 4 33 3 0 191 -50
418 -111z m1758 -1173 c0 -2 -8 -10 -17 -17 -16 -13 -17 -12 -4 4 13 16 21 21
21 13z m-2240 -850 c0 -2 -8 -10 -17 -17 -16 -13 -17 -12 -4 4 13 16 21 21 21
13z"/>
<path d="M1498 2690 c-40 -40 -48 -55 -48 -85 0 -20 -4 -34 -8 -31 -5 3 -24 8
-43 11 -18 3 -36 8 -38 11 -3 2 -29 -19 -58 -48 l-53 -52 0 -201 0 -200 98
-26 97 -25 3 -102 c2 -85 5 -102 20 -106 9 -3 35 -9 57 -15 22 -5 59 -15 82
-21 l42 -11 3 -101 3 -102 98 -25 97 -26 0 -101 0 -101 43 -10 c23 -6 67 -18
97 -26 l55 -16 53 52 c42 42 52 57 52 85 0 37 3 37 76 16 16 -4 33 7 72 47 42
43 52 59 52 87 0 25 4 33 14 29 8 -3 31 -9 51 -13 33 -6 39 -3 85 42 42 41 50
55 50 86 l0 36 47 -14 47 -14 53 52 53 52 0 201 0 200 -97 25 -98 25 -3 101
-3 101 -172 46 c-95 25 -184 49 -200 53 -24 5 -34 -1 -77 -46 -40 -42 -50 -59
-50 -86 0 -19 -1 -34 -2 -34 -2 0 -23 6 -48 14 l-45 13 -3 102 c-1 55 -4 101
-7 101 -2 0 -46 11 -97 26 -51 14 -102 27 -113 29 -11 3 -51 14 -90 25 -38 11
-77 20 -85 19 -8 0 -36 -22 -62 -49z"/>
</g>
</svg>
